<?xml version="1.0" encoding="iso-8859-1"?>
<!-- Generator: Adobe Illustrator 19.0.0, SVG Export Plug-In . SVG Version: 6.00 Build 0)  -->
<svg version="1.1" id="Capa_1" xmlns="http://www.w3.org/2000/svg" xmlns:xlink="http://www.w3.org/1999/xlink" x="0px" y="0px"
	 viewBox="0 0 480 480" style="enable-background:new 0 0 480 480;" xml:space="preserve">
<path style="fill:#DCDCDA;" d="M388.966,120c-11.347-41.523-60.558-72-115.862-72c-54.646,0-95.54,31.219-107.586,72
	c-33.58,0.434-65.225,15.446-74.483,40c-2.534-0.183-5.686,0-8.276,0C36.122,160,0,192.722,0,232s36.122,72,82.759,72h289.655
	C431.703,302.043,480,257.797,480,208C480,162.481,441.017,127.683,388.966,120z"/>
<path style="fill:#C9C9C0;" d="M388.966,248c-11.347-41.523-60.558-72-115.862-72c-54.646,0-95.54,31.219-107.586,72
	c-33.58,0.434-65.225,15.446-74.483,40c-2.534-0.183-5.686,0-8.276,0C36.122,288,0,320.722,0,360s36.122,72,82.759,72h289.655
	C431.703,430.043,480,385.797,480,336C480,290.481,441.017,255.683,388.966,248z"/>
<path style="fill:#ABAEA7;" d="M475.316,309.751c-6,47.51-46.744,82.924-94.626,82.249H49.655
	c-16.149,0.025-32.049-3.973-46.265-11.633C13.358,409.964,44.5,432,82.759,432h289.655C431.703,430.043,480,385.797,480,336
	C479.994,327.043,478.408,318.158,475.316,309.751z"/>
<g>
</g>
<g>
</g>
<g>
</g>
<g>
</g>
<g>
</g>
<g>
</g>
<g>
</g>
<g>
</g>
<g>
</g>
<g>
</g>
<g>
</g>
<g>
</g>
<g>
</g>
<g>
</g>
<g>
</g>
</svg>
