<?xml version="1.0" standalone="no"?>
<!DOCTYPE svg PUBLIC "-//W3C//DTD SVG 20010904//EN"
 "http://www.w3.org/TR/2001/REC-SVG-20010904/DTD/svg10.dtd">
<svg version="1.0" xmlns="http://www.w3.org/2000/svg"
 width="700.000000pt" height="700.000000pt" viewBox="0 0 700.000000 700.000000"
 preserveAspectRatio="xMidYMid meet">
<metadata>
Created by potrace 1.11, written by Peter Selinger 2001-2013
</metadata>
<g transform="translate(0.000000,700.000000) scale(0.100000,-0.100000)"
fill="#000000" stroke="none">
<path d="M1147 6989 c-363 -53 -670 -235 -885 -522 -131 -175 -208 -359 -247
-589 -11 -69 -14 -474 -14 -2383 0 -2261 1 -2302 20 -2405 76 -397 306 -722
649 -917 140 -80 328 -144 475 -161 84 -10 4635 -9 4715 1 284 35 571 184 779
402 169 179 276 384 333 636 l23 104 0 2320 c0 1276 -3 2345 -7 2375 -4 30 -9
66 -13 80 -3 14 -8 38 -11 55 -12 68 -69 217 -120 314 -114 215 -293 403 -499
522 -112 65 -302 137 -405 153 -19 3 -46 9 -60 13 -35 11 -4662 13 -4733 2z"/>
</g>
</svg>
